<?xml version="1.0" encoding="UTF-8" standalone="no"?><!DOCTYPE svg PUBLIC "-//W3C//DTD SVG 1.1//EN" "http://www.w3.org/Graphics/SVG/1.1/DTD/svg11.dtd"><svg width="100%" height="100%" viewBox="0 0 1000 1000" version="1.1" xmlns="http://www.w3.org/2000/svg" xmlns:xlink="http://www.w3.org/1999/xlink" xml:space="preserve" xmlns:serif="http://www.serif.com/" style="fill-rule:evenodd;clip-rule:evenodd;stroke-linejoin:round;stroke-miterlimit:1.41421;"><rect id="Cloud_2" x="0" y="0" width="1000" height="1000" style="fill:none;"/><rect x="0" y="0" width="1000" height="1000" style="fill:#000026;"/><circle cx="608.026" cy="407.56" r="176.255" style="fill:#f0f;fill-opacity:0.14902;"/><circle cx="306.396" cy="556.484" r="101.375" style="fill:#0ff;fill-opacity:0.14902;"/><path d="M492,761.655l0,-25.765c0.027,-1.32 0.151,-1.753 0.412,-2.534c1.086,-3.253 4.446,-5.53 7.91,-5.46c1.317,0.08 1.745,0.222 2.515,0.513c3.005,1.14 5.097,4.227 5.163,7.481l0,25.776c8.735,2.863 16.053,10.168 18.288,19.322c3.046,12.479 -4.132,26.606 -16.058,31.484c-13.68,5.594 -31.441,-2.127 -36.071,-17.014c-4.184,-13.454 4.137,-29.235 17.841,-33.803Zm71.622,0l0,-25.765c0.081,-4.029 3.341,-7.65 7.356,-7.974c0.625,-0.051 0.769,-0.024 0.966,-0.02c1.317,0.08 1.745,0.222 2.515,0.513c3.006,1.14 5.098,4.227 5.163,7.481l0,25.78c8.96,2.948 16.39,10.578 18.439,19.971c2.684,12.303 -4.473,26.033 -16.21,30.831c-13.68,5.592 -31.434,-2.133 -36.068,-17.011c-4.192,-13.457 4.134,-29.238 17.839,-33.806Zm-143.244,-0.001l0,-25.764c0.026,-1.32 0.151,-1.753 0.411,-2.534c1.087,-3.253 4.447,-5.53 7.911,-5.46c4.16,0.252 7.585,3.377 7.678,7.994l0,25.784c8.928,2.941 16.382,10.54 18.438,19.967c2.684,12.302 -4.474,26.031 -16.209,30.831c-14.999,6.134 -34.807,-3.906 -37.07,-21.613c-1.588,-12.422 6.692,-25.179 18.841,-29.205Zm7.927,14.705c-4.921,0.045 -9.577,3.686 -10.703,8.558c-1.47,6.362 3.914,13.472 10.632,13.558c8.22,0.106 14.638,-11.043 8.594,-18.187c-2.084,-2.462 -5.284,-3.94 -8.523,-3.929Zm143.244,0c-7.526,0.069 -13.561,9.338 -9.59,16.436c4.09,7.314 17.481,7.134 20.265,-2.219c1.919,-6.446 -3.156,-14.1 -10.456,-14.217c-0.073,0 -0.146,-0.001 -0.219,0Zm-71.622,0c-7.478,0.069 -13.522,9.204 -9.655,16.32c4.051,7.455 17.903,7.342 20.44,-2.498c1.622,-6.29 -3.239,-13.526 -10.28,-13.814c-0.168,-0.006 -0.336,-0.009 -0.505,-0.008Zm67.746,-347.75c30.424,0.289 60.07,20.762 70.446,50.21c2.763,7.841 4.175,16.108 4.255,24.49c0.152,44.958 0.001,89.917 0.001,134.875c-0.103,30.69 -20.588,60.477 -50.21,70.918c-7.856,2.769 -16.167,4.176 -24.493,4.255c-44.957,0.145 -89.915,0.001 -134.873,0.001c-30.803,-0.099 -60.559,-20.812 -70.918,-50.211c-2.763,-7.841 -4.175,-16.108 -4.255,-24.49c-0.152,-44.958 -0.001,-89.917 -0.001,-134.875c0.103,-30.667 20.546,-60.462 50.21,-70.918c7.856,-2.769 16.168,-4.176 24.492,-4.255c45.115,-0.146 90.231,-0.146 135.346,0Zm-258.496,249.996c-2.454,7.5 -8.014,14.044 -15.384,17.055c-13.773,5.629 -31.682,-2.273 -36.165,-17.332c-4.65,-15.622 7.162,-34.254 25.244,-34.773c0.289,-0.006 0.578,-0.009 0.867,-0.008c11.391,0.11 22.21,8.102 25.674,19.058l25.68,0c0.108,0.002 0.215,0.005 0.323,0.007c5.95,0.36 10.028,8.374 5.666,13.298c-1.496,1.689 -3.751,2.65 -5.989,2.695l-25.916,0Zm381.786,-16c3.48,-10.246 12.83,-18.707 24.778,-19.05c0.289,-0.006 0.578,-0.009 0.867,-0.008c12.14,0.118 23.63,9.176 26.266,21.286c2.685,12.335 -4.522,26.048 -16.211,30.827c-13.704,5.603 -31.494,-2.282 -36.082,-17.055l-25.675,0c-6.146,-0.123 -10.321,-8.414 -5.988,-13.305c1.496,-1.688 3.751,-2.65 5.988,-2.695l26.057,0Zm-258.138,-217.997c-24.321,0.078 -47.665,16.288 -55.854,39.528c-2.177,6.18 -3.282,12.713 -3.345,19.277c-0.152,44.914 -0.001,89.829 -0.001,134.744c0.081,24.086 16.09,47.593 39.529,55.855c6.175,2.176 12.7,3.283 19.275,3.345c45.047,0.146 90.095,0.146 135.142,0c29.908,-0.282 57.57,-25.532 58.761,-56.894c0.024,-0.637 0.036,-1.273 0.042,-1.91c0.152,-44.914 0.001,-89.829 0.001,-134.744c-0.081,-24.091 -16.2,-47.632 -39.529,-55.855c-6.176,-2.176 -12.698,-3.283 -19.275,-3.345c-44.915,-0.145 -89.831,-0.001 -134.746,-0.001Zm-149.332,214.939c-4.17,0.04 -8.191,2.619 -9.958,6.396c-3.101,6.631 2.327,15.772 10.102,15.721c8.294,-0.055 14.557,-11.575 8.025,-18.587c-2.077,-2.229 -5.082,-3.539 -8.169,-3.53Zm432.869,0c-8.44,0.081 -14.527,11.937 -7.84,18.779c5.253,5.375 16.156,3.362 18.515,-4.563c1.891,-6.354 -3.006,-13.915 -10.17,-14.208c-0.169,-0.006 -0.337,-0.009 -0.505,-0.008Zm-151.195,-197.939c22.209,0.213 42.956,18.75 44.151,42.211c0.034,0.664 0.05,1.329 0.056,1.994c0.175,43.446 0.175,86.894 0,130.34c-0.216,22.968 -19.844,43.967 -44.207,44.205c-43.444,0.131 -86.89,0.131 -130.334,0c-23.001,-0.225 -43.981,-20.151 -44.208,-44.21c-0.116,-43.443 -0.116,-86.887 0,-130.33c0.217,-23.006 20.209,-43.979 44.208,-44.21c43.444,-0.138 86.89,-0.138 130.334,0Zm-130.034,16c-14.789,0.047 -28.361,12.716 -28.508,28.307c-0.116,43.379 -0.116,86.757 0,130.136c0.138,14.676 12.719,28.061 28.126,28.305c43.436,0.424 86.876,0.133 130.314,0.002c14.751,-0.144 28.163,-12.734 28.31,-28.313c0.174,-43.374 0.174,-86.75 0,-130.124c-0.138,-14.677 -12.685,-28.163 -28.31,-28.313c-43.311,-0.138 -86.622,0 -129.932,0Zm255.861,113.375c3.517,-10.257 12.917,-18.716 24.747,-19.05c0.289,-0.007 0.578,-0.009 0.867,-0.008c12.139,0.111 23.63,9.175 26.266,21.286c2.685,12.335 -4.522,26.046 -16.21,30.826c-13.706,5.606 -31.495,-2.28 -36.083,-17.054l-25.675,0c-6.926,-0.14 -11.179,-11.168 -3.717,-15.084c0.856,-0.449 1.793,-0.741 2.753,-0.858c0.32,-0.039 0.642,-0.052 0.964,-0.058l26.088,0Zm-381.817,16c-2.454,7.499 -8.014,14.042 -15.383,17.055c-13.79,5.637 -31.715,-2.379 -36.166,-17.332c-4.667,-15.68 7.586,-34.275 25.244,-34.773c0.289,-0.007 0.578,-0.009 0.867,-0.008c11.433,0.105 22.214,8.102 25.674,19.058l25.68,0c0.108,0.002 0.215,0.004 0.323,0.006c5.994,0.363 9.999,8.408 5.666,13.299c-1.496,1.689 -3.751,2.65 -5.989,2.695l-25.916,0Zm160.634,-26.463l0,27.943c0,0 -0.372,4.455 -3.456,6.584c-4.739,3.271 -12.335,0.337 -12.544,-6.584l0,-52.417c0.063,-2.112 0.89,-4.113 2.343,-5.657l22.464,-22.464c1.539,-1.449 3.538,-2.279 5.657,-2.343l26.957,0c0.161,0.005 0.322,0.01 0.483,0.015c1.572,0.142 1.993,0.326 2.8,0.69c2.81,1.264 4.601,3.464 4.717,7.295l0,74.881c-0.206,6.822 -10.96,11.574 -15.083,3.718c-0.574,-1.094 -0.857,-1.74 -0.917,-3.718l0,-27.943l-33.421,0Zm68.861,-54.923c1.48,0.134 1.719,0.264 2.354,0.505c3.038,1.152 5.043,3.507 5.163,7.48l0,74.881c-0.18,5.985 -2.242,6.182 -4.716,7.295c-4.658,2.096 -10.939,-1.359 -11.269,-6.812c-0.01,-0.161 -0.01,-0.322 -0.015,-0.483l0,-74.881c0.048,-1.578 0.206,-2.009 0.52,-2.837c1.153,-3.039 3.507,-5.043 7.48,-5.163c0.161,0.005 0.322,0.01 0.483,0.015Zm-255.179,62.327c-4.164,0.039 -8.191,2.62 -9.958,6.397c-3.083,6.591 2.246,15.673 9.958,15.721c4.829,0.03 9.472,-3.44 10.749,-8.16c1.734,-6.414 -3.307,-13.841 -10.531,-13.957c-0.073,-0.001 -0.145,-0.001 -0.218,-0.001Zm432.869,0c-4.265,0.04 -8.364,2.749 -10.068,6.64c-2.874,6.561 2.421,15.379 9.997,15.477c8.093,0.104 14.839,-10.798 8.592,-18.189c-2.082,-2.463 -5.282,-3.939 -8.521,-3.928Zm-213.13,-23.537l0,-22.805l-15.643,0l-17.778,17.778l0,5.134c11.14,-0.065 22.283,-0.222 33.421,-0.107Zm-230.738,-166.166c-2.504,0.267 -7.123,-0.181 -11.319,0.299c-29.497,3.376 -54.661,29.669 -56.733,59.315c-2.416,34.574 26.564,68.46 63.701,68.814c17.419,0.055 34.839,0.104 52.258,0.147c4.303,0.01 7.785,3.501 7.785,7.804c0,0.001 0,0.001 0,0.002c0,2.073 -0.825,4.061 -2.292,5.525c-1.468,1.464 -3.458,2.284 -5.531,2.279c-17.44,-0.043 -34.88,-0.092 -52.319,-0.147c-31.548,-0.301 -61.886,-20.885 -73.642,-50.147c-12.621,-31.415 -2.538,-70.524 24.094,-91.974c12.585,-10.137 28.223,-16.267 44.435,-17.452c0,0 -1.47,-7.874 -1.908,-14.13c-2.75,-39.322 17.571,-79.486 51.263,-100.525c21.833,-13.635 48.546,-19.07 74.08,-15.331c0,0 4.518,-6.205 8.615,-10.971c25.443,-29.588 63.86,-47.638 103.2,-48.196c0.761,-0.007 1.522,-0.01 2.283,-0.009c44.142,0.267 87.051,22.469 112.81,59.105c0,0 7.335,-0.985 14.348,-1.115c41.81,-0.778 82.876,24.557 100.902,62.527c10.038,21.143 12.937,45.536 8.341,68.538c0,0 6.393,0.646 11.42,1.741c28.536,6.218 52.706,29.314 60.185,57.626c6.979,26.42 -0.759,56.191 -19.759,75.882c-14.732,15.267 -35.604,24.227 -56.969,24.431c-17.44,0.055 -34.88,0.104 -52.319,0.147c-2.073,0.005 -4.063,-0.815 -5.531,-2.279c-1.467,-1.464 -2.292,-3.452 -2.292,-5.525c0,-0.001 0,-0.001 0,-0.002c0,-4.303 3.482,-7.794 7.785,-7.804c17.419,-0.043 34.839,-0.092 52.258,-0.147c28.229,-0.269 54.996,-20.962 61.933,-48.601c5.53,-22.032 -1.711,-46.832 -18.295,-62.457c-12.479,-11.758 -29.725,-18.125 -47.003,-17.42c-0.532,0.231 -1.09,0.418 -1.661,0.561c-0.229,0.06 -0.228,0.06 -0.456,0.121c-14.869,4.121 -28.228,14.624 -36.236,27.885c0,0 -3.961,4.621 -8.452,3.702c-5.088,-1.041 -7.991,-7.495 -4.975,-12.418c9.829,-16.043 26.06,-28.8 43.659,-34.094c0.982,-4.383 2.441,-9.581 2.895,-14.713c3.197,-36.129 -16.621,-73.353 -48.708,-90.796c-18.745,-10.189 -40.997,-13.583 -62.008,-9.709l-0.674,0.033c-0.208,0.059 -0.213,0.061 -0.433,0.125c-14.759,4.445 -27.864,15.152 -35.614,28.668c0,0 -1.894,3.014 -5.02,3.786c-6.046,1.495 -12.309,-5.834 -8.597,-12.201c8.059,-13.823 20.872,-25.402 35.156,-32.008c-22.442,-28.835 -57.899,-47.284 -95.233,-47.964c-0.845,-0.012 -1.69,-0.017 -2.536,-0.015c-37.483,0.227 -74.153,18.649 -97.138,48.479c0.935,0.506 1.867,1.024 2.797,1.538c12.998,7.191 24.425,17.487 31.799,30.206c0,0 1.786,3.326 0.859,6.465c-1.736,5.875 -11.112,7.785 -14.72,1.527c-0.1,-0.174 -0.202,-0.347 -0.304,-0.519c-0.137,-0.23 -0.275,-0.458 -0.415,-0.686c-6.793,-10.965 -17.21,-19.576 -28.933,-25.012c-2.188,-1.015 -4.442,-1.901 -6.775,-2.521c0,0 -0.105,-0.034 -0.287,-0.105c-30.434,-5.151 -63.531,5.674 -84.781,28.496c-21.165,22.731 -29.761,56.159 -22.329,86.554c0.413,0.126 0.824,0.258 1.237,0.387c17.973,5.646 34.007,18.308 43.662,34.082c3.357,5.486 -1.613,14.129 -8.587,12.322c-2.54,-0.658 -4.159,-2.617 -5.812,-5.157c-8.415,-12.843 -21.786,-23.081 -36.194,-26.574c0,0 -0.39,-0.125 -0.97,-0.395Zm291.128,-18.203c-8.033,-2.612 -15.013,-8.719 -17.739,-17.109c-5.122,-15.767 6.958,-34.891 25.045,-35.411c0.289,-0.006 0.578,-0.009 0.868,-0.008c12.197,0.115 23.641,9.251 26.265,21.282c2.684,12.303 -4.474,26.034 -16.21,30.831c-0.733,0.3 -1.476,0.561 -2.229,0.785l0,25.688c-0.104,5.19 -5.886,9.358 -10.837,7.481c-3.01,-1.142 -5.097,-4.227 -5.163,-7.481l0,-26.058Zm-71.622,-0.006c-8.131,-2.649 -15.184,-8.879 -17.841,-17.423c-4.885,-15.708 7.277,-34.578 25.146,-35.091c0.29,-0.006 0.579,-0.009 0.868,-0.008c11.967,0.113 23.235,8.835 26.115,20.63c3.046,12.478 -4.133,26.606 -16.058,31.483c-0.733,0.299 -1.477,0.561 -2.23,0.785l0,25.688c-0.122,6.061 -8.243,10.473 -13.305,5.989c-1.689,-1.497 -2.65,-3.752 -2.695,-5.989l0,-26.064Zm-71.622,-0.075c-9.463,-3.153 -17.465,-11.181 -18.841,-21.947c-1.89,-14.782 10.199,-30.034 26.146,-30.492c0.289,-0.006 0.579,-0.009 0.868,-0.008c11.896,0.113 23.235,8.835 26.115,20.63c3.046,12.478 -4.133,26.605 -16.059,31.483c-0.733,0.3 -1.477,0.56 -2.229,0.784l0,25.689c-0.14,6.94 -11.168,11.179 -15.084,3.718c-0.449,-0.856 -0.741,-1.793 -0.858,-2.753c-0.039,-0.32 -0.052,-0.642 -0.058,-0.965l0,-26.139Zm151.171,-36.447c-7.526,0.071 -13.561,9.338 -9.59,16.437c4.09,7.312 17.481,7.135 20.265,-2.22c1.918,-6.444 -3.136,-14.099 -10.457,-14.216c-0.073,-0.001 -0.145,-0.001 -0.218,-0.001Zm-71.622,0c-7.553,0.071 -13.561,9.338 -9.591,16.437c4.087,7.307 17.482,7.135 20.266,-2.22c1.891,-6.353 -2.959,-13.912 -10.17,-14.209c-0.168,-0.006 -0.336,-0.009 -0.505,-0.008Zm-71.622,0c-7.618,0.072 -13.587,9.486 -9.524,16.555c4.204,7.315 17.833,6.865 20.308,-2.733c1.664,-6.451 -3.498,-13.845 -10.784,-13.822Z" style="fill:url(#_Linear1);"/><defs><linearGradient id="_Linear1" x1="0" y1="0" x2="1" y2="0" gradientUnits="userSpaceOnUse" gradientTransform="matrix(622,0,0,620.772,189,503.91)"><stop offset="0" style="stop-color:#0ff;stop-opacity:1"/><stop offset="1" style="stop-color:#f0f;stop-opacity:1"/></linearGradient></defs></svg>