<?xml version="1.0" encoding="UTF-8" standalone="no"?><!DOCTYPE svg PUBLIC "-//W3C//DTD SVG 1.1//EN" "http://www.w3.org/Graphics/SVG/1.1/DTD/svg11.dtd"><svg width="100%" height="100%" viewBox="0 0 1000 1000" version="1.1" xmlns="http://www.w3.org/2000/svg" xmlns:xlink="http://www.w3.org/1999/xlink" xml:space="preserve" xmlns:serif="http://www.serif.com/" style="fill-rule:evenodd;clip-rule:evenodd;stroke-linejoin:round;stroke-miterlimit:1.41421;"><rect id="Robot_2" x="0" y="0" width="1000" height="1000" style="fill:none;"/><rect x="0" y="0" width="1000" height="1000" style="fill:#000026;"/><circle cx="622.065" cy="594.074" r="176.255" style="fill:#f0f;fill-opacity:0.14902;"/><circle cx="362.581" cy="369.706" r="101.375" style="fill:#0ff;fill-opacity:0.14902;"/><path d="M671.206,802.749l1.456,-0.642l0.508,-1.509l-9.669,-106.355c0.069,-0.381 -0.026,-0.734 -0.063,-1.097c-2.319,-30.821 -0.001,-61.817 -0.001,-92.725l-0.169,-0.798l-1.18,-1.073l-84.766,-28.249l0,-17.097c0.034,-4.766 4.121,-8.713 8.682,-8.798c4.591,-0.027 8.311,3.469 8.835,7.706c0.236,1.905 0.236,4.886 0.236,4.886l1.18,1.074l92.614,30.871c39.988,13.418 70.817,49.61 77.951,90.818c6.673,39.544 13.572,79.051 19.775,118.671c1.712,11.444 -7.849,21.714 -18.552,21.9c-178.691,1.665 -357.405,1.668 -536.095,0c-11.578,-0.201 -20.141,-11.282 -18.552,-21.901c6.202,-39.62 13.096,-79.129 19.783,-118.67c7.183,-41.491 37.854,-77.159 77.468,-90.656c31.012,-10.407 62.065,-20.689 93.097,-31.033l0.703,-0.413l0.646,-1.458l0,-2.999c0.022,-3.965 2.843,-7.527 6.544,-8.505c5.341,-1.411 10.94,3.089 11.039,8.392c0.042,5.737 0.001,11.475 0.001,17.212l-84.766,28.249l-0.703,0.412l-0.646,1.459c0,0 0,92.708 0,92.708c-0.04,0.803 -0.087,0.468 -0.096,0.948c0,0 -9.637,106.521 -9.637,106.521l0.507,1.509l1.457,0.642l342.413,0Zm44.083,-57.766c-9.278,-0.022 -18.394,-2.682 -26.316,-7.381c-0.251,-0.15 -0.501,-0.301 -0.75,-0.454c-0.273,-0.094 -0.546,-0.187 -0.819,-0.28l-1.595,0.554l-0.582,1.585l5.63,61.949c0.693,2.449 1.964,1.793 1.964,1.793c0,0 67.507,-0.001 67.507,-0.001c4.704,-0.089 8.302,-4.619 7.654,-9.033c-2.499,-15.713 -5.229,-31.389 -7.844,-47.084c-0.344,-0.971 -1.035,-1.486 -1.945,-1.648l-42.904,0Zm-401.834,-8.018l1.204,1.184l0.113,0.858l-5.63,61.949c-0.265,0.935 -0.873,1.589 -1.964,1.793c-22.502,0 -45.005,0.16 -67.507,-0.001c-4.46,-0.085 -8.321,-4.491 -7.654,-9.033c0,0 7.844,-47.084 7.844,-47.084c0,0 -0.412,-1.229 1.945,-1.648c14.38,0 28.759,0.034 43.139,0c9.458,-0.068 18.767,-2.884 26.831,-7.835c0,0 0.72,-0.291 1.679,-0.183Zm246.401,-99.706c17.019,0.268 32.859,14.427 33.779,32.503c0.026,0.513 0.039,1.025 0.044,1.538c0.09,32.431 -0.232,64.864 0.002,97.294c0.113,6.583 9.32,11.395 14.773,6.334c1.738,-1.613 2.765,-3.939 2.81,-6.334c0.187,-32.468 0.107,-64.938 -0.001,-97.407c-0.247,-26.141 -22.389,-50.434 -49.846,-51.477c-0.556,-0.021 -1.111,-0.032 -1.667,-0.037c-39.837,-0.132 -79.675,-0.132 -119.511,0c-26.368,0.249 -50.268,22.658 -51.463,49.514c-0.03,0.667 -0.045,1.333 -0.051,2c-0.108,32.469 -0.187,64.939 0,97.407c0.116,6.189 7.996,10.991 13.669,7.206c2.37,-1.581 3.864,-4.351 3.914,-7.206c0.233,-32.43 -0.089,-64.863 0.001,-97.294c0.179,-17.567 15.358,-33.87 34.043,-34.043c39.835,-0.147 79.671,-0.366 119.504,0.002Zm-89.63,88.434l0,27.553c0,0 -0.366,4.393 -3.407,6.492c-4.673,3.226 -12.164,0.333 -12.37,-6.492l0,-51.685c0.063,-2.083 0.878,-4.056 2.311,-5.578l22.151,-22.151c1.517,-1.429 3.488,-2.247 5.577,-2.31l26.582,0c0.158,0.004 0.317,0.009 0.476,0.014c1.55,0.141 1.965,0.322 2.761,0.68c2.771,1.247 4.537,3.416 4.651,7.194l0,73.836c-0.203,6.727 -10.808,11.412 -14.873,3.666c-0.566,-1.078 -0.845,-1.716 -0.904,-3.666l0,-27.553l-32.955,0Zm67.901,-54.157c1.459,0.132 1.694,0.26 2.321,0.498c2.995,1.136 4.973,3.458 5.091,7.376l0,73.836c-0.178,5.901 -2.212,6.096 -4.651,7.194c-4.592,2.066 -10.786,-1.341 -11.111,-6.718c-0.01,-0.158 -0.01,-0.317 -0.015,-0.476l0,-73.836c0.047,-1.556 0.203,-1.981 0.513,-2.797c1.136,-2.997 3.458,-4.973 7.376,-5.091c0.158,0.004 0.317,0.009 0.476,0.014Zm189.432,-35.937c11.379,13.517 19.06,30.103 22.008,47.542l6.987,41.962l-0.441,1.599l-1.505,0.697c-13.174,0 -26.348,0.039 -39.523,-0.001c-16.079,-0.13 -31.118,-12.681 -33.588,-29.424c0,0 -0.476,-5.357 -0.476,-5.357l0,-85.006c0.286,-1.487 1.42,-2.293 3.708,-1.487c0.975,0.343 1.945,0.703 2.908,1.078c6.159,2.401 12.052,5.46 17.637,9.022c0,0 0.882,-0.148 1.22,1.861c0,21.465 -0.154,42.93 0.001,64.395c0.097,5.649 6.554,10.301 12.115,8.032c3.21,-1.309 5.444,-4.634 5.469,-8.149l0,-45.494l0.618,-1.434l1.466,-0.535c0,0 0.701,0.15 1.396,0.699Zm-452.257,-0.164l0.619,1.434c0,15.205 -0.105,30.411 0,45.615c0.12,6.609 9.332,11.386 14.773,6.33c1.763,-1.638 2.793,-4.003 2.811,-6.451l0,-64.278c0.307,-1.827 0.551,-1.443 1.858,-2.266c6.497,-4.094 13.421,-7.461 20.645,-9.941c0,0 2.492,-0.742 2.97,1.744c0,0 -0.008,85.183 -0.008,85.183l-0.468,5.18c-2.367,16.024 -16.721,29.259 -33.587,29.413c0,0 -39.524,0.001 -39.524,0.001l-1.505,-0.697l-0.441,-1.599c2.352,-14.123 4.679,-28.25 7.057,-42.369c2.925,-16.86 10.113,-32.801 21.154,-46.196c0.416,-0.505 0.872,-1.009 1.41,-1.433l1.558,-0.089c0.226,0.14 0.452,0.279 0.678,0.419Zm227.879,74.35l0,-22.487l-15.425,0l-17.53,17.53l0,5.063c10.985,-0.064 21.972,-0.219 32.955,-0.106Zm-3.627,-531.367c-44.853,0.22 -88.953,23.712 -114.157,61.229c-15.346,22.841 -23.362,50.894 -23.362,77.822c0,0 -0.004,1.538 -3.229,2.298c-21.44,5.174 -38.374,25.096 -39.73,47.231c-1.504,24.53 16.649,48.815 41.352,53.947l1.331,0.443l0.816,1.416c0.04,0.422 0.082,0.843 0.126,1.264c0.044,0.42 0.091,0.839 0.139,1.257c3.019,25.802 14.872,50.172 33.074,68.511c14.121,14.163 28.239,28.33 42.427,42.426c9.553,9.384 22.663,14.839 36.113,14.962c17.03,0.049 34.061,0.049 51.091,0c13.38,-0.122 26.509,-5.528 36.113,-14.962c14.264,-14.172 28.492,-28.38 42.653,-42.654c18.58,-18.83 30.405,-43.969 33.052,-70.17l0.315,-1.43l1.329,-0.951c19.53,-3.83 36.079,-19.414 40.671,-39.111c3.641,-15.616 -0.518,-32.866 -10.884,-45.139c-7.455,-8.828 -17.867,-15.051 -29.257,-17.407c0,0 -0.977,0.084 -1.459,-1.27c-0.355,-0.998 -0.111,-2.501 -0.132,-3.973c-0.807,-46 -26.157,-90.886 -65.756,-115.304c-21.138,-13.034 -45.71,-20.15 -70.854,-20.429c-0.594,-0.005 -1.188,-0.007 -1.782,-0.006Zm33.28,22.245c7.425,2.12 14.646,4.952 21.561,8.458c0,0 0.998,-0.239 1.398,1.921c0,10.937 -0.062,21.874 0.001,32.811c0.124,6.617 9.392,11.457 14.852,6.26c1.722,-1.638 2.718,-3.979 2.732,-6.375l0,-18.627c0.326,-1.709 1.785,-2.747 4.164,-0.738c26.378,22.272 42.647,56.278 42.837,91.572c0.057,32.132 0.141,64.264 -0.002,96.395c-0.194,25.45 -10.53,50.572 -28.514,68.841c-14.116,14.256 -28.338,28.407 -42.557,42.56c-6.313,6.211 -14.99,9.814 -23.871,9.899c-16.957,0.049 -33.914,0.049 -50.871,0c-8.877,-0.084 -17.539,-3.658 -23.871,-9.889c-14.224,-14.147 -28.438,-28.306 -42.557,-42.559c-17.882,-18.165 -28.318,-43.15 -28.514,-68.842c-0.143,-32.134 -0.059,-64.27 -0.002,-96.405c0.188,-34.765 16.378,-69.23 42.837,-91.572c1.287,-1.087 3.601,-2.215 4.164,0.738c0,6.248 -0.035,12.495 0.001,18.742c0.124,6.617 9.392,11.457 14.852,6.26c1.722,-1.638 2.718,-3.979 2.732,-6.375l0,-32.696c0.377,-2.038 1.15,-1.8 2.05,-2.251c0.872,-0.437 1.75,-0.863 2.632,-1.279c4.773,-2.249 9.695,-4.182 14.723,-5.78c0.944,-0.3 1.891,-0.588 2.842,-0.864c1.732,-0.503 2.884,-0.136 3.226,1.692c0,16.477 -0.046,32.954 0,49.432c0.157,15.448 13.632,29.514 29.149,30.102c16.145,0.613 31.446,-13.388 31.492,-30.301l0,-49.233c0.205,-1.096 0.634,-2.072 2.514,-1.897Zm-233.18,268.479c14.098,0.137 27.181,11.712 28.722,25.929c1.333,12.308 -6.154,25.097 -17.59,29.936c-10.353,4.382 -23.205,2.048 -31.378,-5.742c-8.806,-8.395 -11.478,-22.602 -6.144,-33.657c4.636,-9.608 14.815,-16.219 25.644,-16.461c0.249,-0.004 0.497,-0.006 0.746,-0.005Zm-0.274,15.777c-8.97,0.086 -16.373,10.995 -11.574,19.701c3.896,7.066 14.822,8.956 20.835,3.225c4.893,-4.663 5.427,-13.261 0.722,-18.508c-2.499,-2.787 -6.239,-4.429 -9.983,-4.418Zm186.182,-21.485c4.79,0.307 10.982,4.444 18.67,2.982c2.582,-0.492 5.078,-1.353 7.496,-2.372c0,0 7.479,-1.387 10.076,3.661c2.057,3.998 -0.132,9.304 -4.482,11.101c-0.54,0.223 -1.083,0.439 -1.63,0.648c-10.578,4.036 -22.532,3.976 -32.925,-0.589c-10.554,-4.636 -4.398,-15.615 2.795,-15.431Zm155.039,-125.388c10.856,3.892 19.496,13.495 22.016,24.729c3.585,15.982 -5.909,33.812 -22.014,39.597c0,0 -2.206,0.378 -2.639,-1.856l0,-60.614c0.219,-1.13 0.675,-2.159 2.637,-1.856Zm-279.731,0.046c1.049,0.738 1.069,1.301 1.165,1.799l0,60.614c-0.588,3.037 -5.74,0.873 -9.387,-1.411c-6.976,-4.368 -12.319,-11.3 -14.677,-19.196c-4.91,-16.44 4.517,-35.789 21.425,-41.863c0,0 0.664,-0.133 1.474,0.057Zm221.808,18.849c5.746,0.405 9.751,7.86 5.822,12.795c-1.284,1.612 -3.271,2.463 -5.275,3.31c-18.307,7.747 -39.514,7.86 -58.055,-0.437c-4.451,-1.991 -7.039,-6.618 -5.374,-10.741c1.651,-4.089 6.836,-5.957 11.052,-4.008c0.127,0.059 0.255,0.117 0.383,0.176c14.972,6.754 32.474,6.594 47.831,-0.394c0,0 2.341,-0.724 3.616,-0.701Zm-109.452,0c5.739,0.404 9.752,7.86 5.823,12.795c-1.284,1.612 -3.271,2.463 -5.275,3.31c-18.283,7.736 -39.513,7.861 -58.056,-0.437c-8.783,-3.93 -6.567,-13.083 -0.759,-15.199c3.889,-1.417 7.871,1.272 12.154,2.775c13.721,4.817 29.126,3.541 42.498,-2.543c0,0 1.851,-0.733 3.615,-0.701Zm27.122,-160.938c3.317,0.019 6.615,0.208 9.921,0.496c1.11,0.097 2.136,0.261 2.467,2.024c0,17.812 0.098,35.625 -0.001,53.437c-0.152,7.8 -8.562,14.368 -16.371,12.045c-5.21,-1.55 -9.07,-6.678 -9.101,-12.204l0,-53.278c0.539,-2.877 5.33,-2.317 9.273,-2.457c1.038,-0.037 2.076,-0.057 3.115,-0.063c0.232,-0.001 0.465,-0.001 0.697,0Zm204.021,2.907c13.335,0.129 25.836,10.366 28.371,23.582c2.48,12.927 -5.058,27.129 -17.239,32.283c-10.062,4.258 -22.447,2.212 -30.611,-5.037c-9.091,-8.072 -12.271,-22.162 -7.356,-33.394c4.419,-10.099 14.866,-17.19 26.089,-17.43c0.249,-0.004 0.498,-0.005 0.746,-0.004Zm-0.274,15.776c-8.745,0.085 -16.029,10.489 -11.903,19.062c3.314,6.888 13.139,9.746 19.68,5.09c6.159,-4.384 7.305,-14.393 1.936,-20.025c-2.494,-2.617 -6.084,-4.137 -9.713,-4.127Z" style="fill:url(#_Linear1);"/><defs><linearGradient id="_Linear1" x1="0" y1="0" x2="1" y2="0" gradientUnits="userSpaceOnUse" gradientTransform="matrix(565.585,0,0,565.585,213.206,541.066)"><stop offset="0" style="stop-color:#0ff;stop-opacity:1"/><stop offset="1" style="stop-color:#f0f;stop-opacity:1"/></linearGradient></defs></svg>