<?xml version="1.0" encoding="UTF-8" standalone="no"?><!DOCTYPE svg PUBLIC "-//W3C//DTD SVG 1.1//EN" "http://www.w3.org/Graphics/SVG/1.1/DTD/svg11.dtd"><svg width="100%" height="100%" viewBox="0 0 1000 1000" version="1.1" xmlns="http://www.w3.org/2000/svg" xmlns:xlink="http://www.w3.org/1999/xlink" xml:space="preserve" xmlns:serif="http://www.serif.com/" style="fill-rule:evenodd;clip-rule:evenodd;stroke-linejoin:round;stroke-miterlimit:1.41421;"><rect id="Robot_1" x="0" y="0" width="1000" height="1000" style="fill:none;"/><rect x="0" y="0" width="1000" height="1000" style="fill:#000026;"/><circle cx="403.736" cy="556.518" r="176.255" style="fill:#0ff;fill-opacity:0.14902;"/><circle cx="681.366" cy="440.905" r="101.375" style="fill:#f0f;fill-opacity:0.14902;"/><path d="M458.665,768.461c-0.598,-0.299 -1.246,-0.766 -2.203,-1.643l-63.833,-63.832c-2.313,-2.525 -2.341,-2.732 -2.483,-5.995l0,-81.294c0.209,-4.79 4.291,-8.661 9.217,-8.446c4.266,0.562 7.55,4.125 7.739,8.446l0,26.121c0.433,0.287 0.842,0.613 1.222,0.974l59.786,59.786c3.493,3.68 3.024,10.247 -1.377,13.105c-3.223,2.093 -7.789,1.565 -10.613,-1.115l-49.018,-49.018l0,27.929l61.35,61.349c0,0 0.583,0.433 1.347,1.756c0.104,0.181 0.199,0.364 0.285,0.55c4.495,-2.547 9.64,-3.98 14.919,-3.96c14.547,0.127 28.053,12.087 29.636,26.757c1.374,12.744 -6.397,25.993 -18.317,30.956c-10.719,4.462 -23.956,1.967 -32.339,-6.12c-9.069,-8.748 -11.733,-23.503 -6.051,-34.928c0.232,-0.467 0.477,-0.926 0.733,-1.378Zm26.049,0.013c-9.634,0.084 -17.638,11.483 -13.237,20.908c3.759,8.049 15.623,11.034 22.748,5.084c6.049,-5.052 6.887,-15.28 1.408,-21.236c-2.763,-3.002 -6.754,-4.773 -10.919,-4.756Zm108.189,-89.672c1.511,0.133 1.755,0.26 2.407,0.497c2.935,1.069 5.156,3.857 5.521,6.983c0.051,0.436 0.045,0.546 0.058,0.984l0,40.739c-0.063,2.243 -0.95,4.373 -2.484,5.995l-33.031,33.032c-4.638,4.375 -13.829,1.745 -14.441,-5.256c-0.187,-2.132 0.47,-4.322 1.795,-5.997c0.272,-0.344 0.355,-0.418 0.656,-0.737l30.548,-30.548l0,-37.228c0,0 0.402,-4.035 2.66,-6.167c1.318,-1.242 3.04,-2.044 4.834,-2.254c0.947,-0.11 1.173,-0.051 1.477,-0.043Zm-290.629,-219.375l-40.715,-61.967c-0.819,-1.629 -1.19,-2.015 -1.413,-3.862c-0.373,-3.087 0.267,-4.562 0.515,-6.526c6.731,-53.171 31.137,-104.389 70.915,-140.288c45.411,-40.981 108.646,-59.567 169.546,-59.863c0.603,-0.001 1.207,-0.002 1.811,-0.002c14.104,0.045 28.213,0.922 42.243,2.559c1.055,0.124 1.818,0.182 2.907,0.567c1.693,0.599 1.985,1.021 3.362,2.121l39,39c0.666,0.917 1.17,1.505 1.558,2.12c37.47,6.015 73.127,23.1 100.913,48.889c32.823,30.465 54.607,72.706 60.054,117.226c0.008,0.024 0.123,0.765 0.202,1.266c4.515,29.063 7.473,58.571 16.683,86.37c2.241,6.763 4.934,13.372 8.283,19.676c0,0 2.95,5.968 3.955,11.361c2.224,11.933 -1.359,24.783 -9.398,33.956c-26.834,30.161 -44.438,66.56 -55.79,105.16c-3.744,12.732 -8.998,26.04 -22.846,30.379c-11.519,3.609 -24.114,1.524 -35.146,-1.395l-110.875,-39.355l0,31.861c-0.151,6.505 -8.937,11.054 -14.19,6.265c-1.737,-1.583 -2.712,-3.892 -2.767,-6.265l0,-37.88l-93.374,-33.143c-0.532,-0.153 -1.064,-0.31 -1.596,-0.467c-64.484,-19.292 -116.568,-73.943 -132.158,-139.894c-0.617,-2.611 -1.177,-5.235 -1.679,-7.869Zm417.438,138.433c9.629,-19.65 21.422,-38.159 35.898,-54.774c2.316,-2.658 5.046,-5.574 6.472,-8.657c3.039,-6.573 1.914,-14.33 -1.456,-20.8c-17.279,-33.55 -20.232,-73.745 -26.037,-110.674c0,0 -0.675,-5.329 -1.477,-9.922c-8.602,-49.309 -39.971,-94.392 -83.491,-119.841c-26.173,-15.306 -56.288,-23.463 -86.824,-23.599c-23.948,-0.037 -47.896,-0.001 -71.843,-0.001c-1.637,0.003 -3.273,0.03 -4.908,0.082l0,35.705c-0.167,7.321 -11.674,11.819 -15.915,4.071c-0.495,-0.903 -0.822,-1.896 -0.963,-2.916c-0.052,-0.382 -0.07,-0.768 -0.078,-1.155l0,-34.303c-48.905,6.547 -94.824,34.368 -122.517,75.88c-30.988,46.451 -37.695,108.318 -16.55,160.776c19.031,47.212 59.863,85.057 108.059,100.483c1.774,0.568 3.558,1.102 5.348,1.617l25.66,9.108l0,-32.79c0.032,-1.423 0.161,-1.852 0.426,-2.657c1.049,-3.177 4.124,-5.573 7.473,-5.802c0.748,-0.051 0.92,-0.011 1.157,0c1.417,0.13 1.836,0.288 2.621,0.607c2.86,1.166 4.961,3.985 5.244,7.081c0.031,0.341 0.027,0.428 0.035,0.771l0,38.809l178.397,63.322c7.569,1.348 15.488,3.235 22.689,1.771c6.485,-1.318 9.281,-9.353 11.301,-16.358c3.83,-13.199 8.323,-26.22 13.605,-38.878c-12.575,-0.781 -24.429,-3.861 -35.325,-10c-6.373,-3.59 -10.966,-8.68 -6.453,-13.976c1.587,-1.863 3.98,-2.924 6.453,-2.98c20.162,10.584 34.405,13.805 42.999,10Zm-415.417,-6.266c13.917,0.135 26.967,10.973 29.37,24.882c2.284,13.216 -5.506,27.516 -17.885,32.759c-13.503,5.72 -30.916,-0.2 -38.056,-13.335c-6.012,-11.06 -4.042,-25.873 4.66,-35.001c5.619,-5.894 13.59,-9.337 21.911,-9.305Zm-0.289,15.299c-9.94,0.096 -18.056,12.102 -12.84,21.701c4.247,7.814 16.309,10.021 23.007,3.706c4.898,-4.618 5.979,-12.758 2.412,-18.468c-2.646,-4.234 -7.461,-6.959 -12.579,-6.939Zm173.924,-290.444c40.91,0.178 80.847,24.118 99.884,61.542c18.531,36.431 15.243,83.038 -9.191,116.741c-24.521,33.824 -68.903,52.287 -110.935,44.762c-33.422,-5.983 -63.478,-27.985 -79.424,-57.974c-21.994,-41.362 -15.183,-96.484 19.126,-131.417c20.792,-21.171 50.159,-33.525 79.815,-33.654c0.242,0 0.483,0 0.725,0Zm-38.476,162.505l-21.146,21.145c20.655,16.846 48.458,25.24 75.731,20.358c15.752,-2.821 30.525,-10.031 42.81,-20.336l-21.127,-21.127c-17.387,13.042 -41.718,16.664 -62.335,8.09c-4.989,-2.074 -9.669,-4.83 -13.933,-8.13Zm-33.389,-109.617c-9.793,11.794 -16.691,25.999 -19.724,41.044c-3.951,19.597 -1.419,40.466 7.221,58.538c3.343,6.99 7.609,13.473 12.613,19.333l21.345,-21.344c-6.491,-8.522 -10.9,-18.628 -12.388,-29.256c-2.302,-16.451 2.373,-33.677 12.311,-46.937l-21.378,-21.378Zm142.991,0.014l-21.37,21.371c2.368,3.044 4.451,6.312 6.196,9.769c10.535,20.878 8.135,47.414 -6.178,66.505l21.137,21.137c10.845,-12.922 18.372,-28.745 20.843,-45.977c3.684,-25.697 -4.114,-52.751 -20.628,-72.805Zm-71.788,13.409c-21.145,0.205 -40.948,16.414 -44.965,37.362c-2.892,15.076 2.335,31.467 13.473,42.084c12.794,12.195 32.816,16.146 49.461,9.222c14.704,-6.116 25.762,-20.355 27.973,-36.128c2.731,-19.472 -8.469,-40.094 -26.434,-48.355c-6.102,-2.805 -12.875,-4.204 -19.508,-4.185Zm227.923,58.756c7.204,-0.592 11.274,-11.532 3.518,-15.95c-0.239,-0.136 -0.479,-0.271 -0.719,-0.404c-20.261,-11.199 -46.375,-11.071 -66.693,0.39c0,0 -3.309,1.967 -4.212,5.255c-1.726,6.291 5.703,13.39 12.572,9.497c0.183,-0.104 0.367,-0.206 0.552,-0.308c15.225,-8.315 34.995,-8.352 50.296,0.411c0,0 2.574,1.171 4.686,1.109Zm-227.623,-24.227c6.38,0 11.561,5.18 11.561,11.561c0,6.381 -5.181,11.561 -11.561,11.561c-6.381,0 -11.562,-5.18 -11.562,-11.561c0,-6.381 5.181,-11.561 11.562,-11.561Zm87.154,-186.39l-23.786,-23.787c-50.31,-5.559 -102.554,-1.155 -148.941,20.892c-42.92,20.399 -77.901,56.191 -96.996,100.281c-8.495,19.614 -13.916,40.544 -16.567,61.74l-0.034,0.283l20.537,31.258c0.414,-37.05 11.414,-74.028 32.071,-104.994c34.756,-52.1 95.288,-85.387 159.319,-85.691c24.176,-0.04 48.352,-0.038 72.528,0c0.623,0.003 1.246,0.008 1.869,0.018Zm-27.638,126.444c-16.302,-13.512 -37.298,-21.312 -58.615,-21.55c-0.401,-0.003 -0.802,-0.004 -1.203,-0.004c-21.464,0.094 -42.749,7.882 -59.218,21.551l21.35,21.35c10.76,-8.153 24.137,-12.754 37.764,-12.886c0.27,-0.001 0.541,-0.001 0.812,0c13.519,0.131 26.817,4.94 37.604,13.045l21.506,-21.506Zm214.172,-169.462c14.617,0.141 28.061,12.158 29.636,26.757c1.376,12.755 -6.372,25.985 -18.318,30.956c-15.97,6.645 -36.824,-3.461 -40.787,-21.126c-3.851,-17.166 9.913,-36.291 28.891,-36.586c0.192,-0.001 0.385,-0.002 0.578,-0.001Zm-0.289,15.299c-10.06,0.097 -18.173,12.568 -12.618,22.088c4.449,7.626 16.384,9.502 22.917,3.196c7.985,-7.708 3.461,-25.074 -10.011,-25.283c-0.096,-0.001 -0.192,-0.001 -0.288,-0.001Z" style="fill:url(#_Linear1);"/><defs><linearGradient id="_Linear1" x1="0" y1="0" x2="1" y2="0" gradientUnits="userSpaceOnUse" gradientTransform="matrix(556,0,0,556,247,500)"><stop offset="0" style="stop-color:#0ff;stop-opacity:1"/><stop offset="1" style="stop-color:#f0f;stop-opacity:1"/></linearGradient></defs></svg>