<?xml version="1.0" encoding="UTF-8" standalone="no"?><!DOCTYPE svg PUBLIC "-//W3C//DTD SVG 1.1//EN" "http://www.w3.org/Graphics/SVG/1.1/DTD/svg11.dtd"><svg width="100%" height="100%" viewBox="0 0 1000 1000" version="1.1" xmlns="http://www.w3.org/2000/svg" xmlns:xlink="http://www.w3.org/1999/xlink" xml:space="preserve" xmlns:serif="http://www.serif.com/" style="fill-rule:evenodd;clip-rule:evenodd;stroke-linejoin:round;stroke-miterlimit:1.41421;"><rect id="Eye" x="0" y="0" width="1000" height="1000" style="fill:none;"/><rect x="0" y="0" width="1000" height="1000" style="fill:#000026;"/><circle cx="608.88" cy="402.074" r="176.255" style="fill:#f0f;fill-opacity:0.14902;"/><circle cx="301.396" cy="572.456" r="101.375" style="fill:#0ff;fill-opacity:0.14902;"/><path d="M339.09,781.073l117.262,0l35.648,-35.648l0,-30.653c0.209,-4.648 4.308,-8.356 9.074,-7.927c3.858,0.7 6.747,3.943 6.926,7.927l0,33.966c-0.141,3.228 -0.261,3.384 -2.343,5.657l-40.335,40.335c-2.382,2.182 -2.577,2.208 -5.656,2.343l-120.676,0c-2.501,7.984 -8.459,14.951 -16.255,18.139c-12.454,5.091 -28.308,-0.185 -35.153,-12.083c-5.787,-10.057 -4.507,-23.701 3.141,-32.53c5.311,-6.132 13.152,-9.788 21.522,-9.755c11.951,0.104 23.243,8.759 26.845,20.229Zm-27.107,-4.23c-4.716,0.041 -9.293,3.067 -11.162,7.408c-3.138,7.292 2.816,16.999 11.162,17.051c5.505,0.035 10.751,-4.068 11.997,-9.464c1.62,-7.01 -3.995,-14.866 -11.756,-14.994c-0.08,-0.001 -0.16,-0.001 -0.241,-0.001Zm309.803,-77.5c13.006,0.113 25.27,10.163 27.608,23.242c2.247,12.572 -5.219,26.256 -17.115,31.125c-12.584,5.15 -28.585,-0.33 -35.324,-12.378c-5.611,-10.03 -4.244,-23.514 3.309,-32.234c5.312,-6.132 13.153,-9.787 21.522,-9.755Zm-0.261,16c-8.21,0.071 -14.988,10.115 -10.677,18.049c4.068,7.487 16.741,8.303 21.371,0.257c4.152,-7.217 -1.151,-18.152 -10.453,-18.306c-0.081,0 -0.161,-0.001 -0.241,0Zm-343.086,-0.001c-2.507,7.977 -8.419,14.952 -16.203,18.138c-12.584,5.151 -28.585,-0.33 -35.324,-12.378c-5.611,-10.03 -4.244,-23.514 3.309,-32.233c5.312,-6.133 13.152,-9.788 21.522,-9.756c12.01,0.105 23.335,8.709 26.875,20.229l31.256,0l16.763,-16.762c0,0 3.422,-2.473 6.306,-2.317c5.695,0.619 9.579,8.017 5.586,12.986c-0.242,0.3 -0.314,0.365 -0.579,0.644l-19.105,19.106c-1.535,1.456 -3.543,2.288 -5.657,2.343l-34.749,0Zm-26.957,-20.229c-4.789,0.042 -9.431,3.169 -11.249,7.614c-2.996,7.325 3.079,16.897 11.409,16.845c4.723,-0.03 9.334,-3.088 11.192,-7.477c3.088,-7.295 -2.511,-17.016 -11.352,-16.982Zm249.549,-390.224c79.43,0.348 156.937,34.697 220.701,83.256c28.278,21.535 54.657,45.706 76.74,73.74c8.077,10.254 16.625,21.06 19.805,33.044c2.783,10.484 -4.25,21.326 -11.207,31.485c-23.027,33.627 -53.931,61.597 -86.366,86.162c-67.85,51.387 -150.087,86.566 -235.599,82.086c-75.067,-3.933 -146.72,-37.086 -206.837,-82.866c-28.338,-21.581 -54.802,-45.888 -76.74,-73.74c-8.077,-10.255 -16.625,-21.061 -19.805,-33.044c-2.792,-10.517 4.368,-21.498 11.206,-31.485c22.982,-33.563 53.932,-61.597 86.367,-86.163c63.863,-48.367 140.356,-82.128 219.669,-82.475c0.689,-0.002 1.377,-0.001 2.066,0Zm-1.61,16.059c-55.418,0.268 -109.782,27.442 -143.185,72.376c-38.463,51.742 -46.21,124.879 -17.599,184.224c24.063,49.913 72.443,87.505 126.937,98.134c56.073,10.937 116.837,-6.749 158.302,-46.518c34.589,-33.172 54.994,-80.512 55.147,-128.615c0.155,-48.917 -20.715,-97.542 -56.707,-131.251c-32.56,-30.496 -76.443,-48.131 -121.737,-48.35c-0.386,-0.001 -0.772,-0.001 -1.158,0Zm121.157,26.058c13.545,10.566 25.72,22.908 36.027,36.773c35.884,48.271 47.762,113.367 30.342,171.863c-11.337,38.072 -34.953,72.241 -66.031,97.077c28.011,-11.961 54.7,-27.381 79.324,-44.953c34.095,-24.332 66.159,-52.623 90.589,-86.097c4.781,-6.551 10.09,-13.309 12.012,-20.872c0.631,-2.482 -1.301,-5.389 -2.781,-8.18c-9.919,-18.705 -24.937,-34.587 -40.106,-49.857c-32.708,-32.924 -70.349,-60.999 -111.621,-82.577c-9.08,-4.748 -18.338,-9.158 -27.755,-13.177Zm-242,0.425c-22.276,9.544 -43.711,21.277 -63.935,34.553c-37.84,24.839 -72.891,54.572 -100.792,90.114c-6.645,8.466 -14.246,16.937 -16.719,27.154c-0.386,1.596 0.582,3.425 1.402,5.23c6.609,14.549 17.635,26.92 28.631,39.11c24.26,26.894 52.052,50.436 82.023,70.729c21.881,14.814 45.208,27.855 69.525,38.277c-45.329,-36.398 -73.737,-93.437 -73.737,-152.628c0,-53.112 22.749,-105.805 61.77,-142.35c3.801,-3.56 7.75,-6.958 11.832,-10.189Zm222.018,61.284c4.235,3.619 7.525,8.344 10.793,12.996c7.431,10.576 13.325,22.209 17.515,34.489l0.423,2.28c-0.218,2.019 -0.063,2.646 -1.148,4.442c-0.4,0.661 -0.983,1.193 -1.474,1.789l-20.831,18.881c0.069,0.439 0.133,0.88 0.196,1.32c1.458,10.392 1.4,20.997 -0.193,31.418c0,0 20.828,18.9 20.828,18.9l1.474,1.789c0.788,1.872 1.227,2.346 1.148,4.442c-0.057,1.491 -0.688,3.053 -0.691,3.06c-0.182,0.528 -0.368,1.055 -0.558,1.58c-5.668,15.736 -14.235,30.324 -25.178,42.996l-0.542,0.622l-1.762,1.506c-0.707,0.313 -1.376,0.731 -2.121,0.937c-2.021,0.562 -2.584,0.243 -4.587,-0.091l-26.766,-8.6c-0.347,0.279 -0.697,0.555 -1.047,0.83c-8.251,6.446 -17.475,11.709 -27.304,15.541c0,0 -5.954,27.488 -5.954,27.488l-0.812,2.171c-1.228,1.618 -1.418,2.235 -3.272,3.214c-1.317,0.695 -2.982,0.93 -2.997,0.933c-0.548,0.106 -1.097,0.208 -1.646,0.307c-16.688,3.001 -33.883,2.843 -50.638,-0.466l-2.185,-0.774c-1.639,-1.198 -2.26,-1.377 -3.272,-3.214c-0.372,-0.677 -0.541,-1.448 -0.812,-2.171l-5.936,-27.481c-0.415,-0.16 -0.829,-0.325 -1.242,-0.49c-9.717,-3.93 -18.907,-9.303 -27.111,-15.876c0,0 -26.782,8.588 -26.782,8.588l-2.287,0.381c-2.015,-0.254 -2.645,-0.11 -4.42,-1.227c-1.263,-0.794 -2.298,-2.12 -2.305,-2.128c-0.366,-0.422 -0.729,-0.846 -1.09,-1.273c-10.793,-12.777 -19.163,-27.547 -24.646,-43.303l-0.268,-0.78l-0.423,-2.28c0.083,-0.768 0.055,-1.556 0.249,-2.305c0.524,-2.031 1.081,-2.359 2.373,-3.926l20.831,-18.881c-0.069,-0.44 -0.133,-0.88 -0.196,-1.321c-1.453,-10.355 -1.395,-21.035 0.193,-31.417c0,0 -20.828,-18.9 -20.828,-18.9l-1.474,-1.79c-0.788,-1.872 -1.228,-2.345 -1.148,-4.442c0.057,-1.491 0.688,-3.051 0.691,-3.059c0.182,-0.528 0.368,-1.054 0.558,-1.58c5.667,-15.738 14.235,-30.325 25.178,-42.997l0.542,-0.622l1.763,-1.506c0.707,-0.312 1.376,-0.73 2.12,-0.937c2.021,-0.561 2.584,-0.242 4.587,0.092l26.766,8.6c0.347,-0.279 0.697,-0.555 1.047,-0.83c8.251,-6.446 17.474,-11.71 27.304,-15.542c0,0 5.954,-27.487 5.954,-27.487l0.812,-2.171c1.228,-1.618 1.418,-2.235 3.272,-3.215c1.317,-0.695 2.982,-0.93 2.997,-0.932c0.548,-0.106 1.097,-0.208 1.646,-0.307c16.688,-3.002 33.883,-2.844 50.638,0.465l2.185,0.774c0.623,0.456 1.32,0.827 1.871,1.368c1.496,1.47 1.501,2.116 2.213,4.018l5.936,27.48c0.415,0.161 0.829,0.326 1.242,0.491c9.73,3.935 18.937,9.326 27.111,15.876c0,0 26.782,-8.588 26.782,-8.588l2.287,-0.382l2.3,0.29c0.707,0.313 1.414,0.625 2.121,0.937Zm-100.964,-28.877c-5.889,0.028 -11.778,0.478 -17.612,1.353l-0.332,0.051l-5.734,26.545l-1.024,2.532c-0.605,0.68 -1.103,1.473 -1.816,2.04c-1.335,1.062 -3.016,1.511 -4.522,2.061c-10.515,3.879 -20.269,9.68 -28.69,17.041l-2.333,1.42c-2.661,0.55 -2.689,0.551 -5.379,0.173l-25.856,-8.307c-7.6,9.49 -13.743,20.1 -18.19,31.404l-0.122,0.314l20.122,18.238l1.681,2.153c0.286,0.864 0.724,1.692 0.858,2.593c0.252,1.687 -0.199,3.367 -0.476,4.947c-1.894,11.019 -1.757,22.37 0.413,33.365l0.063,2.731c-0.854,2.579 -0.867,2.604 -2.539,4.746l-20.122,18.238c4.415,11.32 10.547,21.967 18.102,31.455l0.21,0.263l25.856,-8.308l2.704,-0.379c0.892,0.184 1.828,0.219 2.675,0.553c1.587,0.625 2.817,1.857 4.046,2.886c8.603,7.152 18.536,12.721 29.103,16.325l2.396,1.311c1.807,2.029 1.822,2.053 2.84,4.572l5.734,26.545c11.997,1.833 24.279,1.852 36.292,0.051l0.332,-0.051l5.734,-26.545l1.024,-2.532c0.605,-0.68 1.103,-1.474 1.816,-2.04c1.335,-1.062 3.016,-1.511 4.522,-2.061c10.518,-3.881 20.284,-9.692 28.69,-17.041l2.333,-1.42c2.66,-0.55 2.689,-0.551 5.379,-0.174l25.856,8.308c7.586,-9.472 13.749,-20.118 18.19,-31.405l0.122,-0.313l-20.122,-18.238l-1.68,-2.153c-0.287,-0.864 -0.725,-1.692 -0.859,-2.592c-0.252,-1.687 0.199,-3.368 0.476,-4.948c1.9,-11.057 1.747,-22.415 -0.413,-33.367l-0.063,-2.73c0.854,-2.579 0.867,-2.604 2.539,-4.745l20.122,-18.238c-4.424,-11.345 -10.547,-21.967 -18.102,-31.455l-0.21,-0.263l-25.856,8.307l-2.704,0.38c-0.892,-0.185 -1.828,-0.219 -2.675,-0.553c-1.588,-0.626 -2.817,-1.857 -4.047,-2.886c-8.591,-7.146 -18.475,-12.7 -29.102,-16.326l-2.396,-1.31c-1.807,-2.03 -1.822,-2.053 -2.84,-4.572l-5.734,-26.545c-6.174,-0.944 -12.442,-1.413 -18.68,-1.404Zm-1.585,188.657c4.851,0 8.789,3.939 8.789,8.79c0,4.851 -3.938,8.789 -8.789,8.789c-4.851,0 -8.79,-3.938 -8.79,-8.789c0,-4.851 3.939,-8.79 8.79,-8.79Zm2.3,-122.584c19.72,0.186 38.832,11.966 47.791,29.45c7.576,14.784 7.789,33.101 0.583,48.045c-10.103,20.954 -34.574,34.021 -58.279,29.78c-22.244,-3.981 -40.843,-23.293 -43.978,-45.668c-2.4,-17.132 4.005,-35.287 16.715,-47.118c9.8,-9.122 22.978,-14.361 36.474,-14.489c0.231,-0.001 0.463,-0.001 0.694,0Zm70.03,85.473c4.851,0 8.789,3.938 8.789,8.789c0,4.851 -3.938,8.79 -8.789,8.79c-4.852,0 -8.79,-3.939 -8.79,-8.79c0,-4.851 3.938,-8.789 8.79,-8.789Zm-140.754,0c4.852,0 8.79,3.938 8.79,8.789c0,4.851 -3.938,8.79 -8.79,8.79c-4.851,0 -8.789,-3.939 -8.789,-8.79c0,-4.851 3.938,-8.789 8.789,-8.789Zm70.129,-69.473c-17.115,0.162 -33.4,13.169 -36.99,30.155c-2.641,12.495 1.512,26.203 10.657,35.132c10.504,10.256 27.148,13.668 40.956,8.021c16.002,-6.543 26.235,-25.023 23.048,-42.223c-3.152,-17.006 -19.07,-30.687 -36.684,-31.079c-0.329,-0.005 -0.658,-0.007 -0.987,-0.006Zm-248.449,29.27c4.851,0 8.789,3.938 8.789,8.789c0,4.851 -3.938,8.79 -8.789,8.79c-4.851,0 -8.79,-3.939 -8.79,-8.79c0,-4.851 3.939,-8.789 8.79,-8.789Zm497.394,0c4.851,0 8.79,3.938 8.79,8.789c0,4.851 -3.939,8.79 -8.79,8.79c-4.851,0 -8.789,-3.939 -8.789,-8.79c0,-4.851 3.938,-8.789 8.789,-8.789Zm-319.074,-39.879c4.852,0 8.79,3.938 8.79,8.789c0,4.851 -3.938,8.79 -8.79,8.79c-4.851,0 -8.789,-3.939 -8.789,-8.79c0,-4.851 3.938,-8.789 8.789,-8.789Zm140.754,0c4.851,0 8.789,3.938 8.789,8.789c0,4.851 -3.938,8.79 -8.789,8.79c-4.852,0 -8.79,-3.939 -8.79,-8.79c0,-4.851 3.938,-8.789 8.79,-8.789Zm-72.33,-37.435c4.851,0 8.789,3.938 8.789,8.789c0,4.851 -3.938,8.79 -8.789,8.79c-4.851,0 -8.79,-3.939 -8.79,-8.79c0,-4.851 3.939,-8.789 8.79,-8.789Zm223.447,-129.209c1.095,-3.833 2.972,-7.438 5.604,-10.475c5.203,-6.005 12.972,-9.629 20.978,-9.753c0.181,-0.002 0.362,-0.002 0.543,-0.002c13.566,0.132 26.383,11.285 27.885,25.175c1.306,12.088 -6.133,24.59 -17.395,29.194c-12.454,5.09 -28.308,-0.184 -35.154,-12.084c-1.097,-1.908 -1.941,-3.946 -2.535,-6.055l-31.294,0l-16.763,16.762c0,0 -6.236,4.142 -10.669,0.579c-3.48,-2.798 -3.848,-8.51 -0.644,-11.892l19.105,-19.106c1.538,-1.46 3.543,-2.288 5.657,-2.343l34.682,0Zm26.864,-4.23c-4.789,0.046 -9.433,3.172 -11.249,7.614c-2.962,7.245 2.919,16.736 11.172,16.844c5.492,0.073 10.774,-3.99 12.056,-9.389c1.653,-6.959 -3.819,-14.793 -11.5,-15.063c-0.16,-0.004 -0.32,-0.006 -0.479,-0.006Zm-369.782,-36.229c13.584,0.131 26.383,11.284 27.884,25.174c1.307,12.09 -6.132,24.59 -17.395,29.194c-12.453,5.09 -28.307,-0.185 -35.152,-12.083c-5.784,-10.052 -4.513,-23.697 3.141,-32.531c5.197,-5.998 12.942,-9.628 20.979,-9.753c0.181,-0.001 0.362,-0.002 0.543,-0.001Zm282.415,-41.272c1.096,-3.832 2.973,-7.437 5.605,-10.475c5.197,-5.997 12.942,-9.628 20.978,-9.752c0.181,-0.002 0.362,-0.003 0.543,-0.002c13.603,0.132 26.549,11.129 27.921,25.531c1.148,12.045 -6.364,24.394 -17.592,28.902c-12.471,5.007 -28.21,-0.36 -34.992,-12.148c-1.098,-1.909 -1.942,-3.946 -2.536,-6.056l-117.27,0l-35.648,35.648l0,30.653c-0.029,0.636 -0.014,0.799 -0.129,1.428c-0.968,5.337 -8.356,8.417 -12.859,4.826c-1.87,-1.491 -2.904,-3.84 -3.012,-6.254l0,-33.966c0.141,-3.228 0.261,-3.384 2.343,-5.657l40.335,-40.335c2.382,-2.183 2.577,-2.208 5.656,-2.343l120.657,0Zm-282.677,57.271c-4.787,0.047 -9.432,3.171 -11.248,7.614c-2.964,7.249 2.92,16.736 11.172,16.845c5.491,0.072 10.772,-3.989 12.056,-9.391c1.653,-6.954 -3.818,-14.792 -11.501,-15.062c-0.159,-0.004 -0.319,-0.006 -0.479,-0.006Zm309.542,-61.5c-4.762,0.046 -9.384,3.133 -11.22,7.545c-3.018,7.253 2.896,16.81 11.14,16.913c5.524,0.069 10.824,-4.041 12.077,-9.464c1.601,-6.928 -3.862,-14.675 -11.439,-14.985c-0.186,-0.007 -0.372,-0.01 -0.558,-0.009Z" style="fill:url(#_Linear1);"/><defs><linearGradient id="_Linear1" x1="0" y1="0" x2="1" y2="0" gradientUnits="userSpaceOnUse" gradientTransform="matrix(637.797,0,0,634.449,181.104,499.922)"><stop offset="0" style="stop-color:#0ff;stop-opacity:1"/><stop offset="1" style="stop-color:#f0f;stop-opacity:1"/></linearGradient></defs></svg>