<?xml version="1.0" encoding="UTF-8" standalone="no"?><!DOCTYPE svg PUBLIC "-//W3C//DTD SVG 1.1//EN" "http://www.w3.org/Graphics/SVG/1.1/DTD/svg11.dtd"><svg width="100%" height="100%" viewBox="0 0 1000 1000" version="1.1" xmlns="http://www.w3.org/2000/svg" xmlns:xlink="http://www.w3.org/1999/xlink" xml:space="preserve" xmlns:serif="http://www.serif.com/" style="fill-rule:evenodd;clip-rule:evenodd;stroke-linejoin:round;stroke-miterlimit:1.41421;"><rect id="Laptop_2" x="0" y="0" width="1000" height="1000" style="fill:none;"/><rect x="0" y="0" width="1000" height="1000" style="fill:#000026;"/><circle cx="355.996" cy="566.188" r="176.255" style="fill:#0ff;fill-opacity:0.14902;"/><circle cx="689.626" cy="358.933" r="101.375" style="fill:#f0f;fill-opacity:0.14902;"/><path d="M218.259,664.548l0,-369c0,0 218.991,0 241.541,0c2.122,0 4.157,0.843 5.657,2.343c1.501,1.5 2.343,3.535 2.343,5.657c0,0 0,0 0,0c0,2.122 -0.842,4.156 -2.343,5.657c-1.5,1.5 -3.535,2.343 -5.657,2.343c-19.706,0 -225.541,0 -225.541,0l0,353l201.001,0l0,0l134,0l0,0l200.999,0l0,-353c0,0 -49.293,0 -69,0c-2.121,0 -4.156,-0.843 -5.656,-2.343c-1.501,-1.501 -2.344,-3.536 -2.344,-5.657c0,0 0,0 0,0c0,-2.122 0.843,-4.157 2.344,-5.657c1.5,-1.5 3.535,-2.343 5.656,-2.343c22.551,0 85,0 85,0l0,369l34,0c0,4.337 0,8.674 0,13.012c-0.074,24.484 -16.645,48.352 -40.114,56.597c-6.26,2.199 -12.868,3.327 -19.513,3.39c-172.247,0.52 -344.498,0.52 -516.745,0c-25.006,-0.237 -48.824,-17.198 -56.704,-41.5c-1.933,-5.959 -2.905,-12.204 -2.924,-18.487l0,-13.012l34,0Zm0,16l-17.897,0c1.555,21.709 20.551,40.781 43.624,40.999c172.182,0.52 344.365,0.52 516.547,0c21.566,-0.204 41.824,-17.613 43.605,-40.731l0.019,-0.268l-17.898,0l-216.999,0l0,5.588c-0.066,9.555 -8.272,18.22 -18.201,18.41c-32.462,0.222 -64.925,0.002 -97.388,0.002c-9.65,-0.066 -18.357,-8.427 -18.411,-18.418l0,-5.582l-217.001,0Zm335.001,0l-102,0c0,3.345 -0.705,7.94 2.408,7.999c32.417,0.222 64.851,1.024 97.253,-0.001c1.241,-0.055 2.314,-1.153 2.338,-2.407l0.001,-5.591Zm-102.13,-215.502c3.858,0.781 6.609,4.379 9.338,7.55c6.722,7.814 12.184,16.703 16.153,26.218c0,0 0.524,1.232 0.661,2.361c0.291,2.396 -0.621,4.8 -2.283,6.62l-10.629,10.638c0.077,0.337 0.152,0.674 0.226,1.012c1.724,8.056 2.21,16.272 1.474,24.36l-0.045,0.475l11.899,9.195c3.69,3.128 3.036,8.27 1.28,13.598c-3.413,10.359 -8.591,20.126 -15.208,28.804c0,0 -0.805,1.07 -1.717,1.755c-1.929,1.449 -4.466,1.86 -6.872,1.332l-14.528,-3.887c-0.252,0.235 -0.506,0.468 -0.762,0.701c-6.088,5.505 -12.95,10.031 -20.361,13.458l-0.434,0.198l-2.013,14.903c-0.865,4.764 -5.661,6.769 -11.139,7.908c-10.683,2.221 -21.765,2.616 -32.545,1.231c0,0 -1.329,-0.162 -2.378,-0.609c-2.221,-0.946 -3.845,-2.938 -4.591,-5.287l-3.898,-14.524c-0.33,-0.101 -0.66,-0.205 -0.989,-0.31c-7.743,-2.5 -15.163,-6.203 -21.833,-10.902l-0.39,-0.278l-13.913,5.707c-4.559,1.634 -8.693,-1.517 -12.419,-5.693c-7.262,-8.143 -13.13,-17.509 -17.337,-27.567c0,0 -0.524,-1.233 -0.662,-2.365c-0.291,-2.396 0.621,-4.799 2.283,-6.62l10.629,-10.638c-0.077,-0.337 -0.152,-0.674 -0.226,-1.012c-1.717,-7.983 -2.217,-16.196 -1.474,-24.36l0.045,-0.475l-11.899,-9.195c-3.694,-3.131 -3.032,-8.29 -1.279,-13.601c3.416,-10.351 8.582,-20.112 15.205,-28.798c0,0 0.805,-1.07 1.715,-1.754c1.93,-1.452 4.468,-1.864 6.876,-1.336l14.528,3.887c0.252,-0.235 0.506,-0.468 0.761,-0.701c6.104,-5.519 13.001,-10.05 20.36,-13.458l0.435,-0.198l2.014,-14.903c0.855,-4.709 5.591,-6.754 11.138,-7.908c10.672,-2.218 21.677,-2.627 32.546,-1.231c0,0 1.328,0.162 2.377,0.609c2.221,0.946 3.846,2.938 4.592,5.287l3.898,14.524c0.33,0.101 0.659,0.205 0.987,0.309c7.742,2.498 15.149,6.188 21.837,10.904l0.388,0.277l13.913,-5.707c2.5,-0.896 1.474,-0.809 4.266,-0.504Zm179.167,132.62l49.957,0l19.906,-19.906c0,0 2.229,-1.929 4.507,-2.26c0.979,-0.142 1.217,-0.079 1.534,-0.074c3.739,0.3 4.083,1.212 5.088,2.156c2.866,2.687 3.273,7.596 0.862,10.722c-0.279,0.361 -0.366,0.437 -0.677,0.77l-24.593,24.592l-56.778,0c-2.517,8.132 -8.515,15.259 -16.463,18.508c-12.659,5.173 -28.731,-0.23 -35.648,-12.255c-5.874,-10.212 -4.535,-24.078 3.187,-32.989c5.392,-6.221 13.553,-9.915 21.824,-9.891c12.225,0.118 23.753,8.846 27.294,20.627Zm-244.268,-143.136c-5.275,0.021 -10.54,0.547 -15.707,1.564c0,0 -1.905,13.979 -1.905,13.979c0,0 0.011,0.702 -0.565,2.057c-1.556,3.663 -6.316,4.924 -10.037,6.762c-6.727,3.323 -12.869,7.862 -18.05,13.29c0,0 -3.986,3.057 -7.855,2.205l-13.624,-3.645c-4.023,5.972 -7.233,12.487 -9.557,19.301c0,0 11.153,8.642 11.153,8.642c0,0 0.613,0.341 1.499,1.518c2.563,3.403 0.994,8.524 0.775,13.184c-0.335,7.127 0.539,14.305 2.548,21.169c0,0 0.653,4.978 -2.019,7.902l-9.969,9.976c3.156,6.467 7.195,12.499 11.939,17.93c0,0 13.059,-5.341 13.059,-5.341c0,0 0.602,-0.36 2.064,-0.539c4.238,-0.519 7.847,3.38 11.805,5.921c6.011,3.859 12.659,6.683 19.61,8.379c0,0 4.635,1.924 5.83,5.698l3.656,13.622c7.178,0.498 14.416,0.017 21.496,-1.374c0,0 1.905,-13.98 1.905,-13.98c0,0 -0.011,-0.702 0.565,-2.057c1.667,-3.923 6.884,-5.124 11.031,-7.264c6.349,-3.276 12.127,-7.632 17.061,-12.793c0,0 3.277,-2.708 6.447,-2.444c0.633,0.053 0.785,0.108 1.403,0.244l13.624,3.645c4.022,-5.97 7.226,-12.486 9.559,-19.304c0,0 -11.155,-8.639 -11.155,-8.639c0,0 -0.613,-0.341 -1.499,-1.517c-2.494,-3.312 -1.038,-8.276 -0.798,-12.737c0.392,-7.28 -0.479,-14.628 -2.525,-21.617c0,0 -0.708,-4.194 1.106,-6.808c0.362,-0.522 0.486,-0.626 0.913,-1.093l9.969,-9.977c-3.16,-6.475 -7.194,-12.498 -11.936,-17.927c0,0 -13.062,5.338 -13.062,5.338c0,0 -0.602,0.36 -2.063,0.539c-4.061,0.497 -7.598,-3.161 -11.245,-5.556c-6.144,-4.036 -12.98,-6.996 -20.165,-8.742c0,0 -3.988,-1.483 -5.346,-4.362c-0.271,-0.575 -0.299,-0.735 -0.49,-1.338l-3.656,-13.622c-1.675,-0.116 -3.355,-0.175 -5.034,-0.188c-0.252,-0.001 -0.504,-0.001 -0.755,-0.001Zm216.708,138.509c-5.048,0.049 -9.88,3.38 -11.699,8.074c-2.893,7.465 3.19,17.074 11.616,17.179c5.729,0.072 11.215,-4.196 12.488,-9.85c1.603,-7.121 -3.975,-15.072 -11.829,-15.394c-0.192,-0.007 -0.384,-0.01 -0.576,-0.009Zm-216.233,-96.293c17.092,0.155 33.327,12.421 37.948,28.978c3.661,13.117 -0.028,28.032 -9.386,37.935c-10.846,11.477 -28.795,15.566 -43.694,9.526c-15.621,-6.332 -26.133,-23.399 -24.637,-40.29c1.694,-19.119 18.957,-35.69 38.76,-36.142c0.336,-0.006 0.673,-0.008 1.009,-0.007Zm-0.393,16c-11.53,0.12 -22.16,9.572 -23.394,21.114c-1.072,10.017 4.996,20.371 14.271,24.333c11.423,4.879 26.249,-1.1 31.097,-12.651c3.777,-9.002 1.246,-20.262 -6.102,-26.799c-4.315,-3.838 -10.025,-6.017 -15.872,-5.997Zm232.287,-227.411c4.221,0.519 8.268,2.319 12.336,3.898c11.681,4.536 22.6,10.754 32.525,18.583c2.694,2.125 4.105,5.463 3.306,8.94l-5.853,20.402c0.293,0.318 0.583,0.637 0.873,0.957c7.771,8.666 14.004,18.544 18.486,29.201l0.086,0.205l20.979,3.219l0.838,0.175c0.723,0.234 0.917,0.265 1.596,0.613c4.158,2.13 4.884,7.963 5.82,13.179c2.419,13.481 2.615,27.335 0.624,40.901c0,0 0.058,0.589 -0.488,2.027c-0.912,2.401 -3.042,4.154 -5.545,4.922l-20.595,5.133c-0.129,0.412 -0.26,0.823 -0.392,1.234c-3.593,10.983 -9.051,21.397 -16.049,30.613l-0.132,0.173l7.702,19.779c0,0 0.753,2.309 0.438,4.209c-0.59,3.564 -4.095,6.199 -7.223,8.91c-10.448,9.055 -22.379,16.367 -35.212,21.571c-2.431,0.985 -6.901,1.673 -10.115,-1.318l-14.743,-15.269c-0.421,0.094 -0.843,0.186 -1.266,0.277c-11.295,2.381 -23.032,2.866 -34.534,1.408l-0.217,-0.028l-13.277,16.56l-0.571,0.638c-0.564,0.509 -0.688,0.662 -1.329,1.076c-3.918,2.532 -9.325,0.25 -14.32,-1.549c-12.902,-4.646 -25.037,-11.454 -35.736,-19.911c0,0 -0.537,-0.242 -1.513,-1.438c-1.622,-1.99 -2.075,-4.71 -1.489,-7.261l5.853,-20.402c-0.293,-0.317 -0.583,-0.636 -0.872,-0.957c-7.743,-8.631 -14.023,-18.556 -18.489,-29.205l-0.084,-0.201l-20.979,-3.219c0,0 -2.376,-0.503 -3.864,-1.725c-2.791,-2.292 -3.322,-6.645 -4.106,-10.711c-2.616,-13.576 -2.98,-27.567 -1.074,-41.278c0.36,-2.594 2.001,-6.815 6.199,-8.103l20.595,-5.133c3.567,-11.413 9.173,-22.276 16.44,-31.847l0.133,-0.173l-7.702,-19.778c0,0 -0.753,-2.31 -0.438,-4.209c0.589,-3.564 4.095,-6.2 7.223,-8.911c10.449,-9.054 22.382,-16.366 35.211,-21.57c2.423,-0.983 6.902,-1.674 10.116,1.317l14.743,15.27c0.421,-0.095 0.842,-0.187 1.264,-0.277c11.324,-2.388 23.039,-2.863 34.535,-1.409l0.218,0.028l13.277,-16.559c0,0 2.047,-2.176 4.243,-2.742c1.572,-0.406 2.01,-0.243 2.548,-0.235Zm-48.714,207.426c12.839,2.269 25.98,1.624 38.416,-1.768l0.836,-0.181c0.754,-0.08 0.944,-0.131 1.705,-0.09c1.426,0.078 2.822,0.543 4.009,1.337c0.634,0.423 0.755,0.578 1.311,1.095l14.152,14.657c9.83,-4.399 19,-10.257 27.138,-17.294c0,0 0.369,-0.321 0.369,-0.321l-7.393,-18.986c-0.237,-0.721 -0.327,-0.896 -0.447,-1.649c-0.818,-5.16 4.738,-9.718 8.274,-15.173c5.044,-7.78 8.813,-16.384 11.176,-25.377l0.262,-0.814c0.307,-0.694 0.358,-0.884 0.775,-1.522c0.78,-1.197 1.881,-2.173 3.162,-2.805c0.684,-0.337 0.879,-0.365 1.604,-0.588l19.77,-4.927c1.106,-10.708 0.618,-21.578 -1.409,-32.15l-0.093,-0.48l-20.139,-3.09c-0.743,-0.155 -0.94,-0.165 -1.652,-0.438c-4.471,-1.715 -5.667,-7.873 -8.06,-12.852c-4.33,-9.005 -10.221,-17.234 -17.327,-24.263l-0.576,-0.633c-0.447,-0.613 -0.587,-0.753 -0.932,-1.433c-0.647,-1.274 -0.943,-2.717 -0.85,-4.144c0.05,-0.761 0.123,-0.944 0.293,-1.684l5.619,-19.584c-8.719,-6.309 -18.348,-11.303 -28.551,-14.857l-0.459,-0.158l-12.745,15.896c-0.506,0.566 -0.613,0.731 -1.205,1.211c-3.822,3.097 -9.97,0.91 -15.765,0.512c-9.759,-0.67 -19.606,0.333 -29.077,2.919l-0.836,0.181c-0.755,0.081 -0.945,0.131 -1.706,0.09c-1.427,-0.077 -2.823,-0.543 -4.011,-1.336c-0.633,-0.424 -0.755,-0.579 -1.31,-1.096l-14.152,-14.657c-9.83,4.402 -19,10.259 -27.139,17.295l-0.368,0.32l7.393,18.986c0.237,0.721 0.327,0.897 0.446,1.65c0.79,4.976 -4.424,9.351 -7.774,14.41c-5.295,7.993 -9.239,16.869 -11.675,26.139l-0.262,0.814c-0.307,0.694 -0.358,0.884 -0.775,1.522c-0.78,1.197 -1.881,2.174 -3.162,2.805c-0.684,0.337 -0.879,0.365 -1.604,0.588l-19.77,4.927c-1.106,10.709 -0.608,21.575 1.408,32.151l0.094,0.479l20.139,3.09c0.743,0.155 0.94,0.165 1.652,0.438c4.529,1.738 5.719,8.024 8.193,13.126c4.313,8.898 10.15,17.022 17.194,23.989l0.576,0.633c0.447,0.614 0.587,0.753 0.932,1.433c0.647,1.275 0.943,2.717 0.85,4.144c-0.05,0.761 -0.123,0.944 -0.293,1.684l-5.619,19.584c8.717,6.314 18.377,11.316 28.549,14.856l0.461,0.159l12.745,-15.896c0.506,-0.566 0.613,-0.731 1.205,-1.211c1.11,-0.9 2.458,-1.491 3.872,-1.699c1.605,-0.237 2.022,-0.029 2.556,0.036Zm15.55,-135.414c19.665,0.136 38.64,13.031 45.916,31.29c7.844,19.686 1.459,44.161 -15.323,57.417c-18.985,14.997 -49.295,13.742 -66.854,-4.715c-11.664,-12.262 -16.417,-30.805 -12.001,-47.183c5.554,-20.595 25.286,-36.424 47.358,-36.805c0.302,-0.003 0.603,-0.005 0.904,-0.004Zm-0.471,16c-14.737,0.168 -28.677,10.982 -32.395,25.171c-2.891,11.035 0.255,23.443 8.198,31.793c11.246,11.821 31.475,13.611 44.697,3.686c11.73,-8.806 16.464,-25.782 11.023,-39.437c-4.916,-12.336 -17.552,-21.119 -31.116,-21.213c-0.136,-0.001 -0.271,0 -0.407,0Zm-233.027,4.572l49.961,0l19.906,-19.906c0,0 3.37,-2.377 6.041,-2.334c1.884,0.151 2.439,0.421 3.429,0.958c4.032,2.187 5.396,8.192 2.52,11.92c-0.278,0.361 -0.365,0.437 -0.677,0.77l-24.592,24.592l-56.772,0c-2.538,8.186 -8.612,15.352 -16.63,18.573c-12.618,5.068 -28.602,-0.348 -35.487,-12.32c-5.929,-10.309 -4.513,-24.316 3.412,-33.246c5.265,-5.932 13.04,-9.508 21.048,-9.632c0.184,-0.002 0.368,-0.003 0.551,-0.002c12.219,0.118 23.737,8.85 27.29,20.627Zm-27.556,-4.627c-4.999,0.048 -9.785,3.311 -11.644,7.933c-3.011,7.486 3.114,17.268 11.644,17.321c5.768,0.036 11.28,-4.35 12.454,-10.078c1.474,-7.196 -4.381,-15.054 -12.206,-15.175c-0.083,-0.001 -0.166,-0.002 -0.248,-0.001Z" style="fill:url(#_Linear1);"/><defs><linearGradient id="_Linear1" x1="0" y1="0" x2="1" y2="0" gradientUnits="userSpaceOnUse" gradientTransform="matrix(636,0,0,576.842,184.259,449.516)"><stop offset="0" style="stop-color:#0ff;stop-opacity:1"/><stop offset="1" style="stop-color:#f0f;stop-opacity:1"/></linearGradient></defs></svg>